<svg width="88" height="128" viewBox="0 0 88 128" fill="none" xmlns="http://www.w3.org/2000/svg">
<path d="M18.9793 4.25C14.9364 4.25 11.1618 5.61012 8.40102 8.45527C5.64382 11.2967 4.25 15.2541 4.25 19.7951V108.048C4.25 112.555 5.70489 116.525 8.45676 119.392C11.2135 122.265 15.0061 123.75 19.1228 123.75H47.7524C58.1289 123.75 67.2342 120.5 73.7443 113.878C80.2528 107.257 83.75 97.6901 83.75 85.8627C83.75 73.4343 76.8784 62.601 66.9079 57.7677C68.9349 55.9251 70.6219 53.8201 71.9524 51.4272C74.4629 46.9118 75.5547 41.6398 75.5547 35.6842C75.5547 17.0188 62.2728 4.25 45.6677 4.25H18.9793ZM39.6961 48.6046H32.6013V32.5093H39.6961C42.0039 32.5093 43.8584 33.2183 45.0925 34.3426C46.2721 35.4173 47.2034 37.156 47.2034 39.9254C47.2034 43.1671 46.2951 45.2791 45.1247 46.5452C43.9837 47.7797 42.233 48.6046 39.6961 48.6046ZM45.2553 95.4805H32.6013V76.869H43.5875C47.8377 76.869 50.5333 77.966 52.1195 79.3689C53.6508 80.7232 54.5738 82.7347 54.5738 85.5482C54.5738 89.1424 53.4572 91.5414 51.9575 93.035C50.446 94.5405 48.1902 95.4805 45.2553 95.4805Z" stroke="black" stroke-width="7.5"/>
</svg>
