<svg width="100" height="100" viewBox="0 0 100 100" fill="none" xmlns="http://www.w3.org/2000/svg">
<rect width="100" height="100" rx="10" fill="#1E40AF"/>
<path d="M45.7101 26.2035C50.4458 26.2035 53.9729 27.3134 56.2914 29.5332C58.6099 31.7531 59.7691 35.0335 59.7691 39.3746C59.7691 41.6931 59.2018 43.7403 58.0672 45.5162C56.9327 47.2427 55.2554 48.5993 53.0356 49.5859C50.8157 50.5232 48.0779 50.9918 44.8221 50.9918L45.1181 47.662C46.6473 47.662 48.3986 47.884 50.3718 48.328C52.345 48.7226 54.2442 49.4626 56.0694 50.5478C57.9439 51.5838 59.4732 53.0637 60.6571 54.9875C61.8903 56.8621 62.507 59.2793 62.507 62.2391C62.507 65.4948 61.9643 68.1587 60.8791 70.2305C59.8431 72.3024 58.4619 73.9056 56.7353 75.0402C55.0088 76.1748 53.1589 76.9641 51.1857 77.408C49.2125 77.8027 47.3133 78 45.4881 78H27.0633C25.7807 78 24.6955 77.5807 23.8075 76.7421C22.9689 75.8541 22.5496 74.7689 22.5496 73.4863V30.7172C22.5496 29.4346 22.9689 28.374 23.8075 27.5354C24.6955 26.6474 25.7807 26.2035 27.0633 26.2035H45.7101ZM44.3782 34.9349H31.207L32.169 33.751V47.1441L31.281 46.4781H44.6002C46.0307 46.4781 47.3133 46.0095 48.4479 45.0722C49.5825 44.1349 50.1498 42.7784 50.1498 41.0025C50.1498 38.8813 49.6071 37.3521 48.5219 36.4148C47.486 35.4282 46.1047 34.9349 44.3782 34.9349ZM44.9701 55.2095H31.503L32.169 54.6176V70.2305L31.429 69.4906H45.4881C47.7573 69.4906 49.5578 68.8986 50.8897 67.7147C52.2216 66.4814 52.8876 64.6562 52.8876 62.2391C52.8876 60.0192 52.4436 58.416 51.5557 57.4294C50.6677 56.4428 49.6072 55.8262 48.3739 55.5795C47.1406 55.3329 46.0061 55.2095 44.9701 55.2095ZM74.2184 77.926C72.7878 77.926 71.6779 77.556 70.8886 76.8161C70.1487 76.0268 69.7787 74.9169 69.7787 73.4863V72.2284C69.7787 70.7978 70.1487 69.7126 70.8886 68.9726C71.6779 68.1833 72.7878 67.7887 74.2184 67.7887H75.1803C76.6109 67.7887 77.6962 68.1833 78.4361 68.9726C79.2254 69.7126 79.62 70.7978 79.62 72.2284V73.4863C79.62 74.9169 79.2254 76.0268 78.4361 76.8161C77.6962 77.556 76.6109 77.926 75.1803 77.926H74.2184Z" fill="white"/>
</svg>
